<svg width="20" height="20" viewBox="0 0 20 20" fill="none" xmlns="http://www.w3.org/2000/svg">
<g id="Icon/Outline/file-text">
<path id="Mask" fill-rule="evenodd" clip-rule="evenodd" d="M10 11.6667H7.5C7.04 11.6667 6.66666 11.2933 6.66666 10.8333C6.66666 10.3733 7.04 9.99999 7.5 9.99999H10C10.46 9.99999 10.8333 10.3733 10.8333 10.8333C10.8333 11.2933 10.46 11.6667 10 11.6667ZM6.66666 14.1667C6.66666 13.7067 7.04 13.3333 7.5 13.3333H12.5C12.9608 13.3333 13.3333 13.7067 13.3333 14.1667C13.3333 14.6267 12.9608 15 12.5 15H7.5C7.04 15 6.66666 14.6267 6.66666 14.1667ZM14.5369 16.6667H5.46275C5.20775 16.6667 5.00025 16.48 5.00025 16.25V3.74999C5.00025 3.51999 5.20775 3.33332 5.46275 3.33332H10.0003V5.95832C10.0003 7.26832 11.0144 8.33332 12.2619 8.33332H15.0003V16.25C15.0003 16.48 14.7928 16.6667 14.5369 16.6667ZM11.6669 4.14832L13.9519 6.66665H12.2619C11.9336 6.66665 11.6669 6.34915 11.6669 5.95832V4.14832ZM16.4503 6.93999L11.9136 1.93999C11.7553 1.76582 11.5319 1.66666 11.2961 1.66666H5.46275C4.28859 1.66666 3.33359 2.60166 3.33359 3.74999V16.25C3.33359 17.3983 4.28859 18.3333 5.46275 18.3333H14.5369C15.7111 18.3333 16.6669 17.3983 16.6669 16.25V7.49999C16.6669 7.29249 16.5894 7.09332 16.4503 6.93999Z" fill="#2A8BF2"/>
<mask id="mask0" mask-type="alpha" maskUnits="userSpaceOnUse" x="3" y="1" width="14" height="18">
<path id="Mask_2" fill-rule="evenodd" clip-rule="evenodd" d="M10 11.6667H7.5C7.04 11.6667 6.66666 11.2933 6.66666 10.8333C6.66666 10.3733 7.04 9.99999 7.5 9.99999H10C10.46 9.99999 10.8333 10.3733 10.8333 10.8333C10.8333 11.2933 10.46 11.6667 10 11.6667ZM6.66666 14.1667C6.66666 13.7067 7.04 13.3333 7.5 13.3333H12.5C12.9608 13.3333 13.3333 13.7067 13.3333 14.1667C13.3333 14.6267 12.9608 15 12.5 15H7.5C7.04 15 6.66666 14.6267 6.66666 14.1667ZM14.5369 16.6667H5.46275C5.20775 16.6667 5.00025 16.48 5.00025 16.25V3.74999C5.00025 3.51999 5.20775 3.33332 5.46275 3.33332H10.0003V5.95832C10.0003 7.26832 11.0144 8.33332 12.2619 8.33332H15.0003V16.25C15.0003 16.48 14.7928 16.6667 14.5369 16.6667ZM11.6669 4.14832L13.9519 6.66665H12.2619C11.9336 6.66665 11.6669 6.34915 11.6669 5.95832V4.14832ZM16.4503 6.93999L11.9136 1.93999C11.7553 1.76582 11.5319 1.66666 11.2961 1.66666H5.46275C4.28859 1.66666 3.33359 2.60166 3.33359 3.74999V16.25C3.33359 17.3983 4.28859 18.3333 5.46275 18.3333H14.5369C15.7111 18.3333 16.6669 17.3983 16.6669 16.25V7.49999C16.6669 7.29249 16.5894 7.09332 16.4503 6.93999Z" fill="white"/>
</mask>
<g mask="url(#mask0)">
<g id="&#240;&#159;&#142;&#168; Color">
<rect id="Base" width="20" height="20" fill="#2A8BF2"/>
</g>
</g>
</g>
</svg>
