<svg width="14" height="14" viewBox="0 0 14 14" fill="none" xmlns="http://www.w3.org/2000/svg">
<g id="Icon/Outline/mic">
<path id="Mask" fill-rule="evenodd" clip-rule="evenodd" d="M6.99999 2.33332C6.35657 2.33332 5.83332 2.85657 5.83332 3.49999V6.41666C5.83332 7.06007 6.35657 7.58332 6.99999 7.58332C7.64341 7.58332 8.16666 7.06007 8.16666 6.41666V3.49999C8.16666 2.85657 7.64341 2.33332 6.99999 2.33332ZM9.33332 6.41666C9.33332 7.70349 8.28682 8.74999 6.99999 8.74999C5.71316 8.74999 4.66666 7.70349 4.66666 6.41666V3.49999C4.66666 2.21316 5.71316 1.16666 6.99999 1.16666C8.28682 1.16666 9.33332 2.21316 9.33332 3.49999V6.41666ZM10.5 5.83332C10.8226 5.83332 11.0833 6.09466 11.0833 6.41666C11.0833 8.46999 9.55907 10.1687 7.58332 10.4533V11.6667H8.81124C9.09882 11.6667 9.33332 11.9012 9.33332 12.1887V12.3112C9.33332 12.5988 9.09882 12.8333 8.81124 12.8333H5.18874C4.90116 12.8333 4.66666 12.5988 4.66666 12.3112V12.1887C4.66666 11.9012 4.90116 11.6667 5.18874 11.6667H6.41666V10.4533C4.44091 10.1687 2.91666 8.46999 2.91666 6.41666C2.91666 6.09466 3.17741 5.83332 3.49999 5.83332C3.82257 5.83332 4.08332 6.09466 4.08332 6.41666C4.08332 8.02491 5.39174 9.33332 6.99999 9.33332C8.60824 9.33332 9.91666 8.02491 9.91666 6.41666C9.91666 6.09466 10.1774 5.83332 10.5 5.83332Z" fill="#231F20"/>
<mask id="mask0" mask-type="alpha" maskUnits="userSpaceOnUse" x="2" y="1" width="10" height="12">
<path id="Mask_2" fill-rule="evenodd" clip-rule="evenodd" d="M6.99999 2.33332C6.35657 2.33332 5.83332 2.85657 5.83332 3.49999V6.41666C5.83332 7.06007 6.35657 7.58332 6.99999 7.58332C7.64341 7.58332 8.16666 7.06007 8.16666 6.41666V3.49999C8.16666 2.85657 7.64341 2.33332 6.99999 2.33332ZM9.33332 6.41666C9.33332 7.70349 8.28682 8.74999 6.99999 8.74999C5.71316 8.74999 4.66666 7.70349 4.66666 6.41666V3.49999C4.66666 2.21316 5.71316 1.16666 6.99999 1.16666C8.28682 1.16666 9.33332 2.21316 9.33332 3.49999V6.41666ZM10.5 5.83332C10.8226 5.83332 11.0833 6.09466 11.0833 6.41666C11.0833 8.46999 9.55907 10.1687 7.58332 10.4533V11.6667H8.81124C9.09882 11.6667 9.33332 11.9012 9.33332 12.1887V12.3112C9.33332 12.5988 9.09882 12.8333 8.81124 12.8333H5.18874C4.90116 12.8333 4.66666 12.5988 4.66666 12.3112V12.1887C4.66666 11.9012 4.90116 11.6667 5.18874 11.6667H6.41666V10.4533C4.44091 10.1687 2.91666 8.46999 2.91666 6.41666C2.91666 6.09466 3.17741 5.83332 3.49999 5.83332C3.82257 5.83332 4.08332 6.09466 4.08332 6.41666C4.08332 8.02491 5.39174 9.33332 6.99999 9.33332C8.60824 9.33332 9.91666 8.02491 9.91666 6.41666C9.91666 6.09466 10.1774 5.83332 10.5 5.83332Z" fill="white"/>
</mask>
<g mask="url(#mask0)">
<g id="&#240;&#159;&#142;&#168; Color">
<rect id="Base" width="14" height="14" fill="#707C97"/>
</g>
</g>
</g>
</svg>
